<?xml version="1.0" encoding="UTF-8" standalone="no"?>
<!-- Created with Inkscape (http://www.inkscape.org/) -->

<svg
   width="1104.001"
   height="245.21118"
   viewBox="0 0 1104.001 245.21118"
   version="1.1"
   id="svg1"
   xml:space="preserve"
   inkscape:version="1.3.2 (091e20e, 2023-11-25, custom)"
   sodipodi:docname="My-logo.svg"
   inkscape:export-filename="My-logo.png"
   inkscape:export-xdpi="96"
   inkscape:export-ydpi="96"
   xmlns:inkscape="http://www.inkscape.org/namespaces/inkscape"
   xmlns:sodipodi="http://sodipodi.sourceforge.net/DTD/sodipodi-0.dtd"
   xmlns:xlink="http://www.w3.org/1999/xlink"
   xmlns="http://www.w3.org/2000/svg"
   xmlns:svg="http://www.w3.org/2000/svg"><sodipodi:namedview
     id="namedview1"
     pagecolor="#505050"
     bordercolor="#ffffff"
     borderopacity="1"
     inkscape:showpageshadow="0"
     inkscape:pageopacity="0"
     inkscape:pagecheckerboard="1"
     inkscape:deskcolor="#505050"
     inkscape:document-units="px"
     inkscape:zoom="0.3859375"
     inkscape:cx="884.8583"
     inkscape:cy="503.96761"
     inkscape:window-width="1366"
     inkscape:window-height="697"
     inkscape:window-x="-8"
     inkscape:window-y="-8"
     inkscape:window-maximized="1"
     inkscape:current-layer="layer1"
     inkscape:export-bgcolor="#ffffff00" /><defs
     id="defs1"><linearGradient
       id="linearGradient12"
       inkscape:collect="always"><stop
         style="stop-color:#5f9fc1;stop-opacity:1;"
         offset="0.26605505"
         id="stop12" /><stop
         style="stop-color:#b5dae8;stop-opacity:1;"
         offset="1"
         id="stop13" /></linearGradient><linearGradient
       id="linearGradient23"
       inkscape:collect="always"><stop
         style="stop-color:#f3df9c;stop-opacity:1;"
         offset="0"
         id="stop23" /><stop
         style="stop-color:#f1da8e;stop-opacity:1;"
         offset="0.91743118"
         id="stop24" /></linearGradient><filter
       inkscape:collect="always"
       style="color-interpolation-filters:sRGB"
       id="filter11"
       x="-0.028059389"
       y="-0.029749715"
       width="1.0561188"
       height="1.0594994"><feGaussianBlur
         inkscape:collect="always"
         stdDeviation="0.21836071"
         id="feGaussianBlur11" /></filter><filter
       inkscape:collect="always"
       style="color-interpolation-filters:sRGB"
       id="filter23"
       x="-0.032128738"
       y="-0.060106941"
       width="1.0637693"
       height="1.1204498"><feGaussianBlur
         inkscape:collect="always"
         stdDeviation="1.1318233"
         id="feGaussianBlur23" /></filter><radialGradient
       inkscape:collect="always"
       xlink:href="#linearGradient23"
       id="radialGradient24"
       cx="985.11346"
       cy="498.01611"
       fx="985.11346"
       fy="498.01611"
       r="301.73145"
       gradientTransform="matrix(1,0,0,0.53857782,0,229.79568)"
       gradientUnits="userSpaceOnUse" /><radialGradient
       inkscape:collect="always"
       xlink:href="#linearGradient12"
       id="radialGradient13"
       cx="917.92194"
       cy="286.73608"
       fx="917.92194"
       fy="286.73608"
       r="80.615898"
       gradientTransform="matrix(1,0,0,0.94318178,0,16.291834)"
       gradientUnits="userSpaceOnUse" /><filter
       inkscape:collect="always"
       style="color-interpolation-filters:sRGB"
       id="filter22"
       x="-0.01013195"
       y="-0.014956688"
       width="1.0202639"
       height="1.0299134"><feGaussianBlur
         inkscape:collect="always"
         stdDeviation="0.1198896"
         id="feGaussianBlur22" /></filter></defs><g
     inkscape:groupmode="layer"
     id="layer1"
     inkscape:label="fuente 1"
     transform="translate(-528.03309,-125.74878)"
     style="display:inline;mix-blend-mode:normal"
     inkscape:export-filename="..\..\Users\zorie\OneDrive\Pictures\My-logo.svg"
     inkscape:export-xdpi="96"
     inkscape:export-ydpi="96"><g
       inkscape:groupmode="layer"
       id="layer2"
       inkscape:label="fuente"
       transform="translate(1.1518688e-5)"><text
         xml:space="preserve"
         style="font-weight:bold;font-size:200px;line-height:1;font-family:Constantia;-inkscape-font-specification:'Constantia, Bold';opacity:1;fill:#f3df9c;fill-opacity:1;stroke:#f4e09d;stroke-width:0;stroke-linecap:round;stroke-linejoin:bevel;stroke-miterlimit:7.6;stroke-dasharray:none;stroke-opacity:1;paint-order:stroke fill markers"
         x="515.03308"
         y="336.75537"
         id="text24"><tspan
           sodipodi:role="line"
           x="515.03308"
           y="336.75537"
           id="tspan25"
           style="font-style:normal;font-variant:normal;font-weight:800;font-stretch:normal;font-size:200px;font-family:'Baloo Paaji 2';-inkscape-font-specification:'Baloo Paaji 2 Ultra-Bold';stroke-width:0;stroke-dasharray:none">Enz    rieldev</tspan></text></g><g
       id="g23"
       inkscape:label="slime"
       transform="translate(1.3693646e-5,3.6643599)"
       style="display:inline;mix-blend-mode:normal;filter:url(#filter11)"><ellipse
         style="fill:url(#radialGradient13);fill-opacity:1;stroke:#635242;stroke-width:8;stroke-linecap:round;stroke-linejoin:round;stroke-miterlimit:7.6;stroke-dasharray:none;stroke-opacity:1;paint-order:stroke fill markers"
         id="path12"
         cx="917.92194"
         cy="286.73608"
         rx="80.615898"
         ry="76.035446" /><ellipse
         style="mix-blend-mode:normal;fill:#f6fbfc;fill-opacity:1;stroke:none;stroke-width:0;stroke-linecap:round;stroke-linejoin:round;stroke-miterlimit:7.6;stroke-dasharray:none;stroke-opacity:1;paint-order:stroke fill markers;filter:url(#filter22)"
         id="path13"
         cx="915.63171"
         cy="232.6868"
         rx="14.199391"
         ry="9.6189423"
         transform="matrix(0.92591491,0.18722677,-1.2575507,1.3737174,330.81508,-250.22061)" /><ellipse
         style="display:inline;fill:#f6fbfc;fill-opacity:1;stroke:none;stroke-width:0;stroke-linecap:round;stroke-linejoin:round;stroke-miterlimit:7.6;stroke-dasharray:none;stroke-opacity:1;paint-order:stroke fill markers"
         id="path22"
         cx="863.50702"
         cy="-140.85237"
         rx="3.4296908"
         ry="4.7046404"
         transform="matrix(0.89875814,0.43844475,-0.58912172,0.80804431,0,0)" /></g><g
       id="g11"
       style="display:inline;mix-blend-mode:normal"
       transform="matrix(0.26531518,0,0,0.26531518,665.96275,49.132628)"
       inkscape:label="corona"><path
         style="display:inline;opacity:1;mix-blend-mode:normal;fill:url(#radialGradient24);stroke:#635242;stroke-width:32.8617;stroke-linecap:round;stroke-linejoin:bevel;stroke-miterlimit:7.6;stroke-dasharray:none;stroke-opacity:1;paint-order:stroke fill markers;filter:url(#filter23)"
         d="m 701.95378,402.39243 0.91609,-4.80947 -1.60316,-7.0997 -3.89338,-4.35143 -6.41263,-0.68706 -2.74827,1.37413 -0.91609,3.43534 0.22902,7.09969 0.22903,5.26752 3.20632,2.0612 1.83217,2.29023 1.37413,4.35142 1.37414,6.18361 5.95458,8.93187 -0.68706,3.43534 -1.83218,8.70285 8.93187,28.39878 39.16284,124.13017 -2.0612,1.60315 -1.14512,5.95459 1.14512,6.41263 2.74827,1.83218 3.20631,-0.45805 -0.45805,36.87261 2.51925,2.06121 -2.29022,1.60315 -0.91609,2.97729 0.68706,4.80948 5.26752,1.83217 16.03157,-0.45804 37.10164,-2.74827 36.18554,-3.43534 34.58239,-2.74827 54.96539,-0.91609 h 55.42343 l 54.27829,-0.45804 51.9881,1.14511 39.6209,3.43534 44.4304,3.89338 15.8025,0.68707 6.1836,-0.91609 3.2063,-3.66436 2.9773,-4.80947 0.4581,-4.58045 -2.5193,-1.14511 -2.9773,-0.22903 -0.458,-2.74827 1.8322,-4.35142 1.6031,-5.72556 0.229,-10.53503 1.3742,-10.53504 -0.4581,-8.93187 4.8095,-1.83218 4.5804,-6.41263 -1.6031,-4.58045 -3.4353,-2.51925 5.1888,-15.07816 2.1006,-3.80805 2.5585,-2.18385 2.9773,-9.38992 17.6347,-63.43922 10.8786,-25.19247 -1.6032,2.462 5.5539,-1.71768 2.8055,-1.71766 2.9773,-2.92004 2.7482,-7.78676 0.4581,-5.95458 -1.6032,-5.26752 -1.8321,-2.0612 0.687,-4.1224 0.229,-7.32872 7.7868,-8.70285 6.1836,-11.68015 5.2675,-12.59623 -1.3741,-7.0997 -4.8095,-3.89338 -4.3514,0.45804 -5.7256,7.32872 -1.8322,8.47383 -4.8094,5.72556 -11.9092,12.13819 -18.3218,14.65744 -20.841,11.90917 -22.6733,4.80947 -21.9861,-0.22903 -18.5508,-2.97729 -12.5963,-7.09969 -10.306,-9.38992 -10.306,-10.30601 -10.306,-14.42842 -7.5577,-12.36721 -7.0997,-13.74134 -5.0385,-12.82526 -0.4581,-9.84797 -0.458,-9.16089 -2.5193,-4.35143 -2.5192,-1.37413 -4.5805,0.45804 -3.6643,1.83218 -0.9161,6.18361 -0.229,8.70285 0.229,6.87067 -2.7483,8.70285 -5.7255,9.38992 -12.1382,15.57353 -12.1382,16.26059 -14.4284,13.51233 -16.9477,10.53503 -20.38299,7.78676 -17.86375,2.74827 -20.61202,-2.29022 -20.15397,-9.84797 -13.97037,-10.30601 -11.2221,-11.90916 -9.61894,-13.28331 -8.70286,-13.74134 -5.72556,-10.76406 -2.74827,-3.89338 0.68707,-8.24481 2.29022,-10.99307 -2.74826,-5.49654 -6.64166,-1.37414 -3.20631,2.74827 -1.60316,6.64165 -0.45804,5.95459 1.60316,4.35142 -0.22903,7.0997 -3.20631,7.32872 -5.26752,11.68014 -7.32872,11.68015 -8.70285,12.82525 -8.24481,9.1609 -13.05428,10.53503 -15.3445,8.47383 -13.51232,5.72556 -15.80255,1.83218 -16.94766,-2.29022 -17.63473,-6.41263 -11.45112,-8.70285 -5.49654,-7.0997 -8.01579,-8.93187 -7.09969,-9.84797 z"
         id="path1"
         sodipodi:nodetypes="cccccccccccccccccccccccccccccccccccccccccccccccccccccccccccccccccccccccccccccccccccccccccccccccccccccccccccccccccccccccccccccccccccccccccccccccc"
         transform="rotate(13.840854,863.13476,839.4274)" /><path
         style="display:inline;opacity:1;mix-blend-mode:normal;fill:#6edbfc;fill-opacity:0;stroke:#635242;stroke-width:3.98004;stroke-linecap:round;stroke-linejoin:round;stroke-miterlimit:7.6;stroke-dasharray:none;stroke-opacity:1;paint-order:markers fill stroke"
         d="m 701.21458,426.55871 15.22267,15.22267 11.33603,9.06882 12.30769,7.12551 0.64778,2.26721 0.97166,3.23886 5.50607,47.28745 3.88664,37.57085 1.61943,22.34818 0.32389,14.5749 -0.32389,5.50607 -10.04048,0.32389 -45.9919,-151.25506 z"
         id="path2"
         sodipodi:nodetypes="cccccccccccccc"
         transform="rotate(13.840854,863.13476,839.4274)" /><path
         style="display:inline;opacity:1;mix-blend-mode:normal;fill:#6edbfc;fill-opacity:0;stroke:#635242;stroke-width:3.996;stroke-linecap:round;stroke-linejoin:round;stroke-miterlimit:7.6;stroke-dasharray:none;stroke-opacity:1;paint-order:markers fill stroke"
         d="m 757.89474,463.48178 12.95546,0.32389 11.01215,-0.64777 8.09717,-2.91498 11.65991,-3.56276 12.63158,56.35628 5.82996,21.7004 6.15385,21.70041 4.53441,12.95546 0.97166,6.80162 -1.61943,3.56276 -11.01215,1.29554 -34.65587,4.53442 -12.30769,0.97166 -3.56275,-0.64778 -1.29555,-15.54656 -3.88664,-38.86639 -3.23887,-29.1498 -2.91498,-25.58705 -0.97166,-9.39271 -0.64777,-4.21052 z"
         id="path3"
         transform="rotate(13.840854,863.13476,839.4274)" /><path
         style="display:inline;opacity:1;mix-blend-mode:normal;fill:#6edbfc;fill-opacity:0;stroke:#635242;stroke-width:3.996;stroke-linecap:round;stroke-linejoin:round;stroke-miterlimit:7.6;stroke-dasharray:none;stroke-opacity:1;paint-order:markers fill stroke"
         d="m 868.66397,392.55061 -11.01215,19.4332 -15.87044,19.10931 -13.27935,12.63158 -12.63158,6.15384 1.61943,15.22268 13.60324,47.61133 11.65992,48.25911 4.21052,15.87045 1.29555,1.61943 6.80162,0.32389 48.90688,-2.91498 2.5911,-0.32389 1.61943,-2.91498 1.61943,-6.15385 12.63158,-103.31983 1.29555,-8.74494 -3.56276,-5.18219 -11.9838,-10.36437 -11.65992,-10.04049 -8.74494,-9.7166 L 880,408.74494 872.55061,398.70445 Z"
         id="path4"
         transform="rotate(13.840854,863.13476,839.4274)" /><path
         style="display:inline;opacity:1;mix-blend-mode:normal;fill:#6edbfc;fill-opacity:0;stroke:#635242;stroke-width:3.996;stroke-linecap:round;stroke-linejoin:round;stroke-miterlimit:7.6;stroke-dasharray:none;stroke-opacity:1;paint-order:markers fill stroke"
         d="m 871.90284,431.09312 -4.8583,0.32388 -4.8583,3.23887 -3.56276,6.47773 1.29555,6.15385 3.88664,4.8583 9.39271,1.61943 6.47773,-1.29554 3.88664,-5.50608 0.64778,-6.15384 -3.23887,-6.15385 -4.53441,-2.91498 z"
         id="path5"
         transform="rotate(13.840854,863.13476,839.4274)" /><path
         style="display:inline;opacity:1;mix-blend-mode:normal;fill:#6edbfc;fill-opacity:0;stroke:#635242;stroke-width:3.996;stroke-linecap:round;stroke-linejoin:round;stroke-miterlimit:7.6;stroke-dasharray:none;stroke-opacity:1;paint-order:markers fill stroke"
         d="m 939.91903,457.65182 -2.59109,15.22267 -5.50608,36.5992 -3.88664,23.31983 -2.59109,20.40486 v 11.98381 l -0.32389,7.1255 5.18219,0.97166 26.23482,-1.61943 22.67206,-1.61943 17.81377,-0.64778 18.13762,0.64778 8.745,0.64777 1.6194,-0.64777 v -7.12551 l -1.2955,-16.8421 -2.915,-24.2915 -3.2389,-25.58705 -2.2672,-15.54656 -0.9717,-20.08097 -0.9716,-11.01214 -2.5911,0.64777 -11.65993,6.15385 -17.81376,5.50607 -7.4494,0.97166 -3.88664,0.32389 -12.30769,-1.94332 -8.09716,-2.91498 -7.12551,-2.26721 -2.59109,-0.32389 z"
         id="path6"
         transform="rotate(13.840854,863.13476,839.4274)" /><path
         style="display:inline;opacity:1;mix-blend-mode:normal;fill:#6edbfc;fill-opacity:0;stroke:#635242;stroke-width:3.996;stroke-linecap:round;stroke-linejoin:round;stroke-miterlimit:7.6;stroke-dasharray:none;stroke-opacity:1;paint-order:markers fill stroke"
         d="m 1074.9798,380.89069 -5.1822,9.7166 -9.0689,13.92712 -6.8016,10.36438 -7.7733,10.68826 -7.7732,7.1255 -8.745,8.09717 -1.9433,2.59109 v 10.36437 l 4.8583,32.38867 3.8866,39.51417 1.9434,25.26315 1.6194,13.60324 0.9717,4.8583 3.2388,1.29555 6.8016,-0.32389 10.0405,-0.97166 6.8017,0.32389 h 6.1538 l 9.7166,1.94332 9.7166,1.29555 2.915,0.32388 1.6194,-8.42105 7.1255,-40.48583 7.7733,-33.68421 6.4777,-29.47368 2.915,-13.92713 -2.915,-2.91498 -4.8583,-5.18219 -9.7166,-9.06882 -7.1255,-10.04049 -7.1255,-8.74494 -7.1255,-12.95546 -3.5627,-8.42106 -2.2672,-7.44939 z"
         id="path7"
         sodipodi:nodetypes="cccccccccccccccccccccccccccccccccccc"
         transform="rotate(13.840854,863.13476,839.4274)" /><path
         style="display:inline;opacity:1;mix-blend-mode:normal;fill:#6edbfc;fill-opacity:0;stroke:#635242;stroke-width:3.996;stroke-linecap:round;stroke-linejoin:round;stroke-miterlimit:7.6;stroke-dasharray:none;stroke-opacity:1;paint-order:markers fill stroke"
         d="m 1076.5992,429.79757 h -4.5344 l -4.5344,2.59109 -3.5628,5.18219 -0.3239,3.56275 0.3239,4.21053 1.2956,3.23887 3.8866,3.23886 5.1822,0.32389 5.8299,-1.61943 4.2106,-4.8583 0.9716,-5.18219 v -6.15385 l -3.8866,-3.88664 z"
         id="path8"
         transform="rotate(13.840854,863.13476,839.4274)" /><path
         style="display:inline;opacity:1;mix-blend-mode:normal;fill:#6edbfc;fill-opacity:0;stroke:#635242;stroke-width:3.996;stroke-linecap:round;stroke-linejoin:round;stroke-miterlimit:7.6;stroke-dasharray:none;stroke-opacity:1;paint-order:markers fill stroke"
         d="m 1137.166,454.08907 -6.8016,29.47368 -4.5344,18.46154 -4.8583,18.46154 -4.5345,16.51822 -3.5627,12.63158 -3.5628,11.01214 -0.6477,7.4494 0.6477,2.91498 2.915,1.61943 11.6599,-0.64777 24.6154,0.32388 16.8421,1.29555 11.0122,2.26721 13.6032,3.23886 h 6.1539 l 1.2955,-2.59109 0.6478,-7.77328 1.9433,-22.67206 2.2672,-34.97976 0.9717,-23.64373 1.9433,-14.89878 -0.6478,-10.04049 -0.9716,-4.21052 h -2.915 l -9.0689,3.23886 -13.2793,0.32389 h -8.0972 l -7.4494,-0.97166 -6.4777,-1.61943 -7.7733,-2.26721 -6.8016,-2.26721 z"
         id="path9"
         transform="rotate(13.840854,863.13476,839.4274)" /><path
         style="display:inline;opacity:1;mix-blend-mode:normal;fill:#6edbfc;fill-opacity:0;stroke:#635242;stroke-width:3.996;stroke-linecap:round;stroke-linejoin:round;stroke-miterlimit:7.6;stroke-dasharray:none;stroke-opacity:1;paint-order:markers fill stroke"
         d="m 1262.834,425.26316 -11.6599,9.7166 -11.9838,7.1255 -9.0688,3.56276 -9.0689,5.82996 v 6.47773 l -1.6194,33.68421 -1.9433,15.87045 -1.2956,17.81376 -1.9433,16.19433 v 11.65992 l 0.3239,10.36437 3.8866,7.77329 0.9717,-9.06883 2.915,-1.94332 20.081,-74.17004 10.3643,-26.55871 9.3927,-23.31984 z"
         id="path10"
         sodipodi:nodetypes="ccccccccccccccccccc"
         transform="rotate(13.840854,863.13476,839.4274)" /><path
         style="display:inline;opacity:1;mix-blend-mode:normal;fill:#6edbfc;fill-opacity:0;stroke:#635242;stroke-width:3.996;stroke-linecap:round;stroke-linejoin:round;stroke-miterlimit:7.6;stroke-dasharray:none;stroke-opacity:1;paint-order:markers fill stroke"
         d="m 745.74702,606.14908 1.05024,35.73867 3.64134,1.80916 54.4197,-6.288 61.86235,-3.88664 51.49797,-2.91498 35.95142,-1.29555 46.31576,-0.32388 46.3158,0.97166 38.5425,1.29554 44.0486,1.94332 25.9109,2.26721 21.3766,0.97166 31.7936,2.07747 0.3728,-10.2695 2.0219,-15.33719 0.3046,-8.07752 1.8715,-8.61078 -30.9135,-3.25851 -47.2319,-3.48753 -64.7773,-1.61944 -51.498,-0.97166 -43.40083,0.97166 -32.38866,0.32389 -34.33198,1.94332 -43.07693,1.94332 -35.62753,1.94332 -35.30364,3.88664 -29.36255,3.96522 z"
         id="path11"
         sodipodi:nodetypes="cccccccccccccccccccccccccccccc"
         transform="rotate(13.840854,863.13476,839.4274)" /></g></g></svg>
